<svg viewBox="0 0 48 48" fill="none" xmlns="http://www.w3.org/2000/svg">
<g clip-path="url(#users_grad_clip)">
<g transform="matrix(0.02384 0 0 0.02384 24 24)">
<foreignObject x="-1006.67" y="-1006.67" width="2013.33" height="2013.33"><div xmlns="http://www.w3.org/1999/xhtml" style="background:conic-gradient(from 90deg,rgba(187, 255, 173, 1) 0deg,rgba(45, 153, 23, 1) 55.7255deg,rgba(26, 96, 12, 1) 82.8001deg,rgba(30, 110, 13, 1) 107.534deg,rgba(112, 255, 83, 1) 142.851deg,rgba(75, 255, 39, 1) 207.218deg,rgba(45, 153, 23, 1) 249.344deg,rgba(75, 255, 39, 1) 300.471deg,rgba(187, 255, 173, 1) 352.145deg,rgba(187, 255, 173, 1) 360deg);height:100%;width:100%;opacity:1"></div></foreignObject>
</g>
</g>
<defs>
<clipPath id="users_grad_clip"><path transform="scale(0.1875)" d="M244.8,150.4a8,8,0,0,1-11.2-1.6A51.6,51.6,0,0,0,192,128a8,8,0,0,1-7.37-4.89,8,8,0,0,1,0-6.22A8,8,0,0,1,192,112a24,24,0,1,0-23.24-30,8,8,0,1,1-15.5-4A40,40,0,1,1,219,117.51a67.94,67.94,0,0,1,27.43,21.68A8,8,0,0,1,244.8,150.4ZM190.92,212a8,8,0,1,1-13.84,8,57,57,0,0,0-98.16,0,8,8,0,1,1-13.84-8,72.06,72.06,0,0,1,33.74-29.92,48,48,0,1,1,58.36,0A72.06,72.06,0,0,1,190.92,212ZM128,176a32,32,0,1,0-32-32A32,32,0,0,0,128,176ZM72,120a8,8,0,0,0-8-8A24,24,0,1,1,87.24,82a8,8,0,1,0,15.5-4A40,40,0,1,0,37,117.51,67.94,67.94,0,0,0,9.6,139.19a8,8,0,1,0,12.8,9.61A51.6,51.6,0,0,1,64,128,8,8,0,0,0,72,120Z"/></clipPath>
</defs>
</svg>
